<svg xmlns="http://www.w3.org/2000/svg" width="32" height="32" viewBox="0 0 32 32" role="img" aria-label="Deal to Dish">
  <!-- Matches the in-app logo: lucide "UtensilsCrossed", white, on a gum-green
       rounded-lg tile (Navigation.jsx / Auth.jsx). Icon is the 24-unit lucide
       glyph scaled to 20px and centred in the 32px tile (same ratio as nav). -->
  <rect width="32" height="32" rx="8" fill="#36453B"/>
  <g transform="translate(6 6) scale(0.83333)" fill="none" stroke="#FFFFFF" stroke-width="2" stroke-linecap="round" stroke-linejoin="round">
    <path d="m16 2-2.3 2.3a3 3 0 0 0 0 4.2l1.8 1.8a3 3 0 0 0 4.2 0L22 8"/>
    <path d="M15 15 3.3 3.3a4.2 4.2 0 0 0 0 6l7.3 7.3c.7.7 2 .7 2.8 0L15 15Zm0 0 7 7"/>
    <path d="m2.1 21.8 6.4-6.3"/>
    <path d="m19 5-7 7"/>
  </g>
</svg>
